<?xml version="1.0" encoding="UTF-8"?>
<svg version="1.1" viewBox="0 0 160 100" xmlns="http://www.w3.org/2000/svg" xmlnsXlink="http://www.w3.org/1999/xlink">
<g fill="none" fill-rule="evenodd">
<rect y="9" width="160" height="80" d="M0,9 L0,89 L160,89 L160,9 L0,9 Z M0,9" fill="#F6F6F6"/>
<path id="b" d="m148 1.0115e-6c-8 7.5498e-7 -92.699-2.6147e-6 -140 0-4 2.2111e-7 -8 4-8 8v12h160s-2e-6 18.572 0-8c0-8-4-12-12-12z" fill="#265697"/>
<path d="m0 80s9.6637e-7 1e-6 0 8c-4.6284e-7 8 4 12 12 12 44.623 0 128 3e-7 136 0 8 0 12-4 12-12v-8h-160z" fill="#D97B16"/>
<path id="Shape" d="m111.61 29.782c-2.2425-0.85963-5.7561-1.7821-10.144-1.7821-11.184 0-19.062 5.7551-19.129 14.003-0.063 6.0969 5.6242 9.4979 9.9175 11.528 4.4058 2.0797 5.8868 3.4062 5.8656 5.2633-0.027788 2.8442-3.5182 4.1436-6.7713 4.1436-4.5303 0-6.937-0.64309-10.654-2.2273l-1.4585-0.67431-1.5886 9.4986c2.6435 1.1843 7.5322 2.2106 12.608 2.2637 11.898 0 19.621-5.689 19.709-14.497 0.042636-4.827-2.9731-8.5002-9.5028-11.528-3.9563-1.9629-6.3791-3.2727-6.3535-5.2603 0-1.7637 2.0508-3.6496 6.4818-3.6496 3.7013-0.058739 6.3823 0.76599 8.4715 1.6256l1.0142 0.48964 1.5345-9.1964" fill="#265697"/>
<path id="Shape" d="m140.64 28.778h-8.746c-2.7092 0-4.7369 0.75559-5.9267 3.5187l-16.81 38.885h11.885s1.9432-5.2284 2.3828-6.3763c1.2988 0 12.845 0.018207 14.496 0.018207 0.33876 1.4854 1.3771 6.3581 1.3771 6.3581h10.503l-9.1609-42.404zm-13.957 27.349c0.93609-2.4447 4.5095-11.861 4.5095-11.861-0.066818 0.11293 0.92909-2.4566 1.5008-4.0497l0.76491 3.6583s2.1672 10.128 2.6203 12.252l-9.3955 4.335e-4z" fill="#265697"/>
<path id="Shape" d="m59.25 71.169 7.0766-42.431h11.319l-7.0815 42.431h-11.314z" fill="#265697"/>
<path id="a" d="m49.757 28.768-11.081 28.935-1.1807-5.8802c-2.0629-6.7784-8.4902-14.122-15.676-17.799l10.132 37.108 11.975-0.013872 17.819-42.35h-11.989" fill="#265697"/>
<path d="m28.396 28.742h-18.251l-0.14445 0.88282c14.199 3.5122 23.595 12 27.495 22.198l-3.9686-19.499c-0.68515-2.6868-2.6723-3.4886-5.1306-3.5822" fill="#D97B16"/>
</g>
</svg>
